<?xml version="1.0" encoding="utf-8"?>
<!-- Generator: Adobe Illustrator 26.0.1, SVG Export Plug-In . SVG Version: 6.00 Build 0)  -->
<svg version="1.1" id="Layer_1" xmlns="http://www.w3.org/2000/svg" xmlns:xlink="http://www.w3.org/1999/xlink" x="0px" y="0px"
	 viewBox="0 0 283.5 283.5" style="enable-background:new 0 0 283.5 283.5;" xml:space="preserve">
<style type="text/css">
	.st0{fill:none;stroke:#000000;stroke-width:3.6579;stroke-miterlimit:10;}
</style>
<g>
	<path class="st0" d="M168.3,91.5c2.9-3.1,5.8-6.2,8.8-9.3c17.5,4.6,35,9.2,52.5,13.7c7.2,38.4,14.4,76.9,21.6,115.3
		c-20.9,2.6-41.9,5.2-62.8,7.9c-4.5-0.8-9.1-1.6-13.6-2.4C172.6,175,170.4,133.3,168.3,91.5z"/>
	<polyline class="st0" points="177,82.3 187.4,219 187.4,219 	"/>
	<path class="st0" d="M240.6,155c8.4,0.8,16.9,1.6,25.3,2.4c3.9,16.5,7.8,32.9,11.8,49.4c-8.8,1.1-17.6,2.2-26.3,3.3"/>
	<path class="st0" d="M114.2,93.4c-2.9-3.1-5.8-6.2-8.8-9.3C88,88.7,70.5,93.2,53,97.8c-7.2,38.4-14.4,76.9-21.6,115.3
		c20.9,2.6,41.9,5.2,62.8,7.9c4.5-0.8,9.1-1.6,13.6-2.4C109.9,176.9,112.1,135.1,114.2,93.4z"/>
	<polyline class="st0" points="95.1,220.8 95.1,220.8 105.5,84.1 	"/>
	<path class="st0" d="M31.1,211.9c-8.8-1.1-17.6-2.2-26.3-3.3c3.9-16.5,7.8-32.9,11.8-49.4c8.4-0.8,16.9-1.6,25.3-2.4"/>
	<polyline class="st0" points="157.1,63.8 157.2,63.8 157.2,64 157.2,65.7 157.2,218.6 157.2,218.6 	"/>
	<polyline class="st0" points="123.7,218.6 123.5,218.6 123.5,65.4 123.5,64.3 123.5,63.8 123.7,63.8 	"/>
	<path class="st0" d="M123.5,65.4c-0.1-0.2-0.1-0.4-0.1-0.6s0-0.4,0.1-0.6c0-0.1,0.1-0.3,0.2-0.4c1.4-2.6,8.4-4.6,16.7-4.6
		c8.4,0,15.3,2,16.7,4.6c0,0.1,0.1,0.1,0.1,0.2c0.1,0.3,0.2,0.5,0.2,0.8s-0.1,0.5-0.2,0.8"/>
	<path class="st0" d="M157.2,218.6c0.1,0.2,0.2,0.4,0.2,0.6c0,2-7.6,3.5-17,3.5c-9.4,0-17-1.6-17-3.5c0-0.2,0.1-0.4,0.2-0.6"/>
	<line class="st0" x1="123.5" y1="91.1" x2="114.2" y2="93.9"/>
	<line class="st0" x1="168.3" y1="91.7" x2="157.2" y2="89"/>
	<polyline class="st0" points="123.7,218.6 107.8,218.4 107.1,218.3 	"/>
	<polyline class="st0" points="175.4,216.9 157.2,218.6 157.2,218.6 	"/>
</g>
</svg>
